<?xml version="1.0" standalone="no"?><!DOCTYPE svg PUBLIC "-//W3C//DTD SVG 1.1//EN" "http://www.w3.org/Graphics/SVG/1.1/DTD/svg11.dtd"><svg class="icon" width="64px" height="64.00px" viewBox="0 0 1024 1024" version="1.1" xmlns="http://www.w3.org/2000/svg"><path d="M512 1024C230.4 1024 0 793.6 0 512S230.4 0 512 0s512 230.4 512 512S793.6 1024 512 1024zM512 85.333333C277.333333 85.333333 85.333333 277.333333 85.333333 512s192 426.666667 426.666667 426.666667 426.666667-192 426.666667-426.666667S746.666667 85.333333 512 85.333333z"  /><path d="M512 554.666667c-25.6 0-42.666667-17.066667-42.666667-42.666667L469.333333 42.666667c0-25.6 17.066667-42.666667 42.666667-42.666667s42.666667 17.066667 42.666667 42.666667l0 469.333333C554.666667 537.6 537.6 554.666667 512 554.666667z"  /><path d="M844.8 887.466667c-12.8 0-21.333333-4.266667-29.866667-12.8l-332.8-332.8c-17.066667-17.066667-17.066667-42.666667 0-59.733333s42.666667-17.066667 59.733333 0l332.8 332.8c17.066667 17.066667 17.066667 42.666667 0 59.733333C866.133333 883.2 853.333333 887.466667 844.8 887.466667z"  /><path d="M512 554.666667c-12.8 0-21.333333-4.266667-29.866667-12.8-17.066667-17.066667-17.066667-42.666667 0-59.733333l332.8-332.8c17.066667-17.066667 42.666667-17.066667 59.733333 0s17.066667 42.666667 0 59.733333l-332.8 332.8C533.333333 550.4 524.8 554.666667 512 554.666667z"  /></svg>